<svg xmlns="http://www.w3.org/2000/svg" viewBox="0 0 120 100" width="100%" height="100%" fill="none">
  <defs>
    <linearGradient id="yosoHandGrad" x1="10" y1="10" x2="110" y2="90" gradientUnits="userSpaceOnUse">
      <stop offset="0%" stop-color="#93C5FD"/>
      <stop offset="40%" stop-color="#3B82F6"/>
      <stop offset="100%" stop-color="#1E3A8A"/>
    </linearGradient>
    <linearGradient id="yosoShadeGrad" x1="20" y1="40" x2="90" y2="90" gradientUnits="userSpaceOnUse">
      <stop offset="0%" stop-color="#1D4ED8" stop-opacity="0.8"/>
      <stop offset="100%" stop-color="#0F172A" stop-opacity="0.9"/>
    </linearGradient>
    <linearGradient id="yosoLineGrad" x1="10" y1="10" x2="100" y2="80" gradientUnits="userSpaceOnUse">
      <stop offset="0%" stop-color="#E0F2FE"/>
      <stop offset="100%" stop-color="#93C5FD"/>
    </linearGradient>
  </defs>

  <!-- Sombra exterior de silueta -->
  <path d="M 12 30 C 5 20 10 8 20 5 C 28 3 34 10 38 20 L 44 28 C 48 18 55 12 65 13 C 73 14 78 20 80 28 C 84 22 92 18 100 22 C 108 26 112 36 106 48 L 94 65 C 88 78 80 88 70 95 L 42 95 C 32 88 26 78 22 65 L 12 30 Z" fill="#09122C" opacity="0.5"/>

  <!-- Silueta Principal de la Mano en Seña Y (Fingerspelling) -->
  <!-- 1. Meñique extendido (izquierda) -->
  <path d="M 23 8 C 16 10 13 20 18 30 L 25 43 C 27 46 31 46 33 43 L 38 32 C 40 27 38 20 34 14 C 30 9 26 7 23 8 Z" fill="url(#yosoHandGrad)" stroke="#60A5FA" stroke-width="2" stroke-linejoin="round"/>
  <!-- Líneas del meñique -->
  <path d="M 20 17 L 31 13" stroke="url(#yosoLineGrad)" stroke-width="1.8" stroke-linecap="round"/>
  <path d="M 23 25 L 34 21" stroke="url(#yosoLineGrad)" stroke-width="1.8" stroke-linecap="round"/>
  <path d="M 26 34 L 37 30" stroke="url(#yosoLineGrad)" stroke-width="1.8" stroke-linecap="round"/>

  <!-- 2. Dedo Anular flexionado -->
  <path d="M 37 28 C 37 18 45 13 52 14 C 59 15 62 22 61 30 L 59 44 C 57 48 48 48 44 45 L 37 38 Z" fill="url(#yosoHandGrad)" stroke="#60A5FA" stroke-width="2" stroke-linejoin="round"/>
  <path d="M 42 22 C 47 21 53 22 57 23" stroke="url(#yosoLineGrad)" stroke-width="1.6" stroke-linecap="round"/>
  <path d="M 40 33 C 46 32 52 33 56 34" stroke="url(#yosoLineGrad)" stroke-width="1.6" stroke-linecap="round"/>

  <!-- 3. Dedo Medio flexionado -->
  <path d="M 58 24 C 58 14 66 10 74 11 C 81 12 84 18 83 26 L 81 42 C 79 46 70 47 66 44 L 58 35 Z" fill="url(#yosoHandGrad)" stroke="#60A5FA" stroke-width="2" stroke-linejoin="round"/>
  <path d="M 64 19 C 69 18 75 19 79 20" stroke="url(#yosoLineGrad)" stroke-width="1.6" stroke-linecap="round"/>
  <path d="M 62 30 C 67 29 73 30 77 31" stroke="url(#yosoLineGrad)" stroke-width="1.6" stroke-linecap="round"/>

  <!-- 4. Dedo Índice flexionado -->
  <path d="M 79 22 C 80 14 88 10 95 12 C 101 14 104 20 102 28 L 98 44 C 95 48 87 48 83 44 L 79 32 Z" fill="url(#yosoHandGrad)" stroke="#60A5FA" stroke-width="2" stroke-linejoin="round"/>
  <path d="M 85 19 C 90 19 95 20 99 22" stroke="url(#yosoLineGrad)" stroke-width="1.6" stroke-linecap="round"/>
  <path d="M 83 30 C 88 30 93 31 96 33" stroke="url(#yosoLineGrad)" stroke-width="1.6" stroke-linecap="round"/>

  <!-- 5. Palma Central y Dorso -->
  <path d="M 28 42 C 22 50 25 68 32 78 L 44 94 L 74 94 L 88 78 C 96 66 98 52 94 42 L 80 44 C 74 48 64 48 58 44 C 52 48 42 47 38 43 Z" fill="url(#yosoHandGrad)" stroke="#60A5FA" stroke-width="2" stroke-linejoin="round"/>

  <!-- 6. Pulgar extendido (derecha) -->
  <path d="M 90 42 C 96 36 104 28 111 25 C 117 23 120 28 116 36 C 110 48 102 60 94 68 L 86 60 C 88 52 89 46 90 42 Z" fill="url(#yosoHandGrad)" stroke="#60A5FA" stroke-width="2" stroke-linejoin="round"/>
  <!-- Líneas del pulgar -->
  <path d="M 103 33 C 107 38 111 44 113 49" stroke="url(#yosoLineGrad)" stroke-width="1.8" stroke-linecap="round"/>
  <path d="M 96 44 C 100 48 104 54 106 59" stroke="url(#yosoLineGrad)" stroke-width="1.8" stroke-linecap="round"/>

  <!-- Sombreado anatómico en pliegues de palma y muñeca -->
  <path d="M 44 94 L 46 82 C 54 84 64 84 72 82 L 74 94 Z" fill="url(#yosoShadeGrad)" stroke="#38BDF8" stroke-width="1.5"/>
  <path d="M 36 62 C 45 68 62 68 76 60" stroke="#38BDF8" stroke-width="1.8" stroke-linecap="round" opacity="0.8"/>
  <path d="M 40 73 C 48 78 60 78 70 72" stroke="#38BDF8" stroke-width="1.8" stroke-linecap="round" opacity="0.7"/>
</svg>
